<?xml version="1.0" encoding="UTF-8" standalone="no"?>
<!-- Created with Inkscape (http://www.inkscape.org/) -->

<svg
   xmlns:svg="http://www.w3.org/2000/svg"
   xmlns="http://www.w3.org/2000/svg"
   version="1.1"
   width="720"
   height="720"
   id="svg2">
  <defs
     id="defs4" />
  <g
     transform="translate(0,-332.36218)"
     id="layer1">
    <path
       d="m 481.5584487915039,421.5584411621094 a 95.84415435791015,95.84415435791015 0 0 1 -3.2658103647687,24.8062925095729 l -92.5783439931414,-24.8062925095729 z"
       transform="matrix(3.443089484285946,0,0,3.443089484285946,-968.0488311030801,-759.1012557772354)"
       id="path2841"
       style="fill:#80ff00;stroke:none" />
    <path
       d="m 481.5584487915039,421.5584411621094 a 95.84415435791015,95.84415435791015 0 0 1 -3.2658103647687,24.8062925095729 l -92.5783439931414,-24.8062925095729 z"
       transform="matrix(0,-3.443089484285946,3.443089484285946,0,-1091.463435777235,2020.411011103078)"
       id="path2843"
       style="fill:#ff0000;stroke:none" />
    <path
       d="m 481.5584487915039,421.5584411621094 a 95.84415435791015,95.84415435791015 0 0 1 -3.2658103647687,24.8062925095729 l -92.5783439931414,-24.8062925095729 z"
       transform="matrix(0.891137132525419,-3.325769055096105,3.325769055096106,0.891137132525419,-1385.730348847113,1599.492464086384)"
       id="path2845"
       style="fill:#ff4000;stroke:none" />
    <path
       d="m 481.5584487915039,421.5584411621094 a 95.84415435791015,95.84415435791015 0 0 1 -3.2658103647687,24.8062925095729 l -92.5783439931414,-24.8062925095729 z"
       transform="matrix(1.721544742142973,-2.981802960894691,2.981802960894691,1.721544742142972,-1561.028623598868,1116.754487312879)"
       id="path2847"
       style="fill:#ff8000;stroke:none" />
    <path
       d="m 481.5584487915039,421.5584411621094 a 95.84415435791015,95.84415435791015 0 0 1 -3.2658103647687,24.8062925095729 l -92.5783439931414,-24.8062925095729 z"
       transform="matrix(2.434631922570686,-2.434631922570685,2.434631922570686,2.434631922570685,-1605.411972302263,605.0948761374469)"
       id="path2849"
       style="fill:#ffc000;stroke:none" />
    <path
       d="m 481.5584487915039,421.5584411621094 a 95.84415435791015,95.84415435791015 0 0 1 -3.2658103647687,24.8062925095729 l -92.5783439931414,-24.8062925095729 z"
       transform="matrix(2.981802960894691,-1.721544742142972,1.721544742142973,2.981802960894691,-1515.855743090114,99.3823875042118)"
       id="path2851"
       style="fill:#ffff00;stroke:none" />
    <path
       d="m 481.5584487915039,421.5584411621094 a 95.84415435791015,95.84415435791015 0 0 1 -3.2658103647687,24.8062925095729 l -92.5783439931414,-24.8062925095729 z"
       transform="matrix(3.325769055096106,-0.891137132525419,0.891137132525419,3.325769055096105,-1298.463044984561,-365.9195082158767)"
       id="path2853"
       style="fill:#c0ff00;stroke:none" />
    <path
       d="m 481.5584487915039,421.5584411621094 a 95.84415435791015,95.84415435791015 0 0 1 -3.2658103647687,24.8062925095729 l -92.5783439931414,-24.8062925095729 z"
       transform="matrix(3.325769055096106,0.891137132525419,-0.891137132525419,3.325769055096105,-547.1302840863861,-1053.368168847113)"
       id="path2855"
       style="fill:#40ff00;stroke:none" />
    <path
       d="m 481.5584487915039,421.5584411621094 a 95.84415435791015,95.84415435791015 0 0 1 -3.2658103647687,24.8062925095729 l -92.5783439931414,-24.8062925095729 z"
       transform="matrix(2.981802960894691,1.721544742142972,-1.721544742142973,2.981802960894691,-64.39230731287928,-1228.666443598867)"
       id="path2857"
       style="fill:#00ff00;stroke:none" />
    <path
       d="m 481.5584487915039,421.5584411621094 a 95.84415435791015,95.84415435791015 0 0 1 -3.2658103647687,24.8062925095729 l -92.5783439931414,-24.8062925095729 z"
       transform="matrix(2.434631922570686,2.434631922570685,-2.434631922570686,2.434631922570685,447.2673038625513,-1273.049792302264)"
       id="path3631"
       style="fill:#00ff40;stroke:none" />
    <path
       d="m 481.5584487915039,421.5584411621094 a 95.84415435791015,95.84415435791015 0 0 1 -3.2658103647687,24.8062925095729 l -92.5783439931414,-24.8062925095729 z"
       transform="matrix(1.721544742142973,2.981802960894691,-2.981802960894691,1.721544742142972,952.9797924957886,-1183.493563090115)"
       id="path3633"
       style="fill:#00ff80;stroke:none" />
    <path
       d="m 481.5584487915039,421.5584411621094 a 95.84415435791015,95.84415435791015 0 0 1 -3.2658103647687,24.8062925095729 l -92.5783439931414,-24.8062925095729 z"
       transform="matrix(0.8911371325254188,3.325769055096105,-3.325769055096106,0.8911371325254187,1418.281688215879,-966.100864984563)"
       id="path3635"
       style="fill:#00ffc0;stroke:none" />
    <path
       d="m 481.5584487915039,421.5584411621094 a 95.84415435791015,95.84415435791015 0 0 1 -3.2658103647687,24.8062925095729 l -92.5783439931414,-24.8062925095729 z"
       transform="matrix(-5.65476079858138e-16,3.443089484285946,-3.443089484285946,-5.654760798581379e-16,1811.463435777236,-635.6866511030789)"
       id="path3637"
       style="fill:#00ffff;stroke:none" />
    <path
       d="m 481.5584487915039,421.5584411621094 a 95.84415435791015,95.84415435791015 0 0 1 -3.2658103647687,24.8062925095729 l -92.5783439931414,-24.8062925095729 z"
       transform="matrix(-0.8911371325254194,3.325769055096105,-3.325769055096106,-0.8911371325254194,2105.730348847112,-214.7681040863877)"
       id="path3639"
       style="fill:#00c0ff;stroke:none" />
    <path
       d="m 481.5584487915039,421.5584411621094 a 95.84415435791015,95.84415435791015 0 0 1 -3.2658103647687,24.8062925095729 l -92.5783439931414,-24.8062925095729 z"
       transform="matrix(-1.721544742142974,2.981802960894691,-2.981802960894691,-1.721544742142973,2281.028623598867,267.9698726871201)"
       id="path3641"
       style="fill:#0080ff;stroke:none" />
    <path
       d="m 481.5584487915039,421.5584411621094 a 95.84415435791015,95.84415435791015 0 0 1 -3.2658103647687,24.8062925095729 l -92.5783439931414,-24.8062925095729 z"
       transform="matrix(-2.434631922570686,2.434631922570685,-2.434631922570686,-2.434631922570685,2325.411972302263,779.6294838625506)"
       id="path3643"
       style="fill:#0040ff;stroke:none" />
    <path
       d="m 481.5584487915039,421.5584411621094 a 95.84415435791015,95.84415435791015 0 0 1 -3.2658103647687,24.8062925095729 l -92.5783439931414,-24.8062925095729 z"
       transform="matrix(-2.981802960894691,1.721544742142972,-1.721544742142973,-2.981802960894691,2235.855743090111,1285.341972495787)"
       id="path3645"
       style="fill:#0040ff;stroke:none" />
    <path
       d="m 481.5584487915039,421.5584411621094 a 95.84415435791015,95.84415435791015 0 0 1 -3.2658103647687,24.8062925095729 l -92.5783439931414,-24.8062925095729 z"
       transform="matrix(-3.325769055096106,0.8911371325254187,-0.8911371325254188,-3.325769055096105,2018.463044984562,1750.643868215875)"
       id="path3677"
       style="fill:#4000ff;stroke:none" />
    <path
       d="m 481.5584487915039,421.5584411621094 a 95.84415435791015,95.84415435791015 0 0 1 -3.2658103647687,24.8062925095729 l -92.5783439931414,-24.8062925095729 z"
       transform="matrix(-3.443089484285946,-5.654760798581379e-16,5.65476079858138e-16,-3.443089484285946,1688.04883110308,2143.825615777233)"
       id="path3679"
       style="fill:#8000ff;stroke:none" />
    <path
       d="m 481.5584487915039,421.5584411621094 a 95.84415435791015,95.84415435791015 0 0 1 -3.2658103647687,24.8062925095729 l -92.5783439931414,-24.8062925095729 z"
       transform="matrix(-3.325769055096106,-0.8911371325254194,0.8911371325254194,-3.325769055096105,1267.130284086387,2438.092528847114)"
       id="path3681"
       style="fill:#c000ff;stroke:none" />
    <path
       d="m 481.5584487915039,421.5584411621094 a 95.84415435791015,95.84415435791015 0 0 1 -3.2658103647687,24.8062925095729 l -92.5783439931414,-24.8062925095729 z"
       transform="matrix(-2.981802960894691,-1.721544742142973,1.721544742142974,-2.981802960894691,784.3923073128795,2613.390803598866)"
       id="path3683"
       style="fill:#ff00ff;stroke:none" />
    <path
       d="m 481.5584487915039,421.5584411621094 a 95.84415435791015,95.84415435791015 0 0 1 -3.2658103647687,24.8062925095729 l -92.5783439931414,-24.8062925095729 z"
       transform="matrix(-2.434631922570686,-2.434631922570685,2.434631922570686,-2.434631922570685,272.7326961374484,2657.774152302264)"
       id="path3685"
       style="fill:#ff00c0;stroke:none" />
    <path
       d="m 481.5584487915039,421.5584411621094 a 95.84415435791015,95.84415435791015 0 0 1 -3.2658103647687,24.8062925095729 l -92.5783439931414,-24.8062925095729 z"
       transform="matrix(-1.721544742142973,-2.981802960894691,2.981802960894691,-1.721544742142972,-232.9797924957885,2568.217923090116)"
       id="path3687"
       style="fill:#ff0080;stroke:none" />
    <path
       d="m 481.5584487915039,421.5584411621094 a 95.84415435791015,95.84415435791015 0 0 1 -3.2658103647687,24.8062925095729 l -92.5783439931414,-24.8062925095729 z"
       transform="matrix(-0.8911371325254188,-3.325769055096105,3.325769055096106,-0.8911371325254187,-698.281688215879,2350.825224984561)"
       id="path3689"
       style="fill:#ff0040;stroke:none" />
  </g>
</svg>
